<?xml version="1.0" encoding="iso-8859-1"?>
<!-- Generator: Adobe Illustrator 16.0.0, SVG Export Plug-In . SVG Version: 6.00 Build 0)  -->
<!DOCTYPE svg PUBLIC "-//W3C//DTD SVG 1.1//EN" "http://www.w3.org/Graphics/SVG/1.1/DTD/svg11.dtd">
<svg version="1.1" id="Capa_1" xmlns="http://www.w3.org/2000/svg" xmlns:xlink="http://www.w3.org/1999/xlink" x="0px" y="0px"
	 width="48.748px" height="48.748px" viewBox="0 0 48.748 48.748" style="enable-background:new 0 0 48.748 48.748;"
	 xml:space="preserve">
<g>
	<g>
		<path d="M33.631,26.137c0.767-5.002-2.678-9.696-7.681-10.462c-5.002-0.768-9.697,2.678-10.463,7.68
			c-0.35,2.276,0.181,4.484,1.326,6.292c-0.733,0.69-1.793,1.685-2.006,1.854c-0.063,0.051-0.013,0.205,0.107,0.417
			c-0.562,0.521-1.156,1.072-1.748,1.616c-0.586,0.539-1.166,1.069-1.71,1.563l0,0c-0.404,0.364-0.783,0.707-1.13,1.014l0,0
			c-0.104,0.093-0.211,0.188-0.309,0.273c-0.14,0.123-0.252,0.252-0.351,0.383c-0.028,0.039-0.049,0.076-0.074,0.113
			c-0.065,0.102-0.121,0.2-0.165,0.303c-0.015,0.035-0.03,0.071-0.042,0.107c-0.042,0.119-0.072,0.238-0.088,0.355
			c-0.002,0.016-0.006,0.029-0.007,0.045c-0.155,1.422,1.498,2.673,3.023,1.332c0.009-0.008,0.025-0.021,0.035-0.029l0,0
			c0.086-0.076,0.194-0.173,0.313-0.278c0.01-0.01,0.022-0.02,0.032-0.028c0.124-0.111,0.263-0.236,0.415-0.375
			c0.021-0.02,0.041-0.037,0.062-0.057c0.167-0.15,0.346-0.314,0.538-0.49c0.014-0.013,0.028-0.025,0.042-0.039
			c0.171-0.155,0.352-0.321,0.539-0.494c0.046-0.041,0.091-0.082,0.138-0.125c0.189-0.174,0.382-0.352,0.581-0.534
			c0.743-0.685,1.54-1.421,2.29-2.114c0.14,0.073,0.251,0.102,0.313,0.053c0.286-0.228,1.408-1.283,2.121-1.957
			c1.02,0.631,2.178,1.073,3.437,1.267C28.17,34.586,32.866,31.141,33.631,26.137z M23.493,31.7
			c-3.834-0.587-6.476-4.187-5.888-8.02c0.588-3.836,4.187-6.476,8.021-5.889c3.834,0.589,6.476,4.186,5.888,8.021
			C30.926,29.646,27.328,32.289,23.493,31.7z"/>
		<path d="M24.375,0C10.936,0,0.001,10.934,0.001,24.373c0,5.062,1.551,9.768,4.203,13.668v0.068h0.049
			c0.242,0.354,0.496,0.697,0.755,1.035c1.625,2.127,3.595,3.975,5.819,5.471c3.876,2.605,8.534,4.133,13.546,4.133
			c13.438,0,24.373-10.936,24.373-24.375C48.748,10.934,37.814,0,24.375,0z M46.736,23.874h-8.061
			c-0.042-4.169-0.469-7.757-1.066-10.751h6.093C45.556,16.296,46.648,19.962,46.736,23.874z M42.388,11.123h-5.221
			C36.5,8.38,35.722,6.253,35.058,4.72C37.945,6.296,40.447,8.49,42.388,11.123z M25.375,2.025c2.389,0.105,4.682,0.588,6.82,1.388
			c0.556,1.008,1.834,3.602,2.89,7.71h-9.71V2.025z M23.375,2.025v9.098h-9.25c1.139-4.424,2.531-7.091,3.002-7.912
			C19.102,2.533,21.196,2.122,23.375,2.025z M14.284,4.414c-0.689,1.548-1.529,3.784-2.243,6.709H6.36
			C8.434,8.312,11.147,6.007,14.284,4.414z M5.047,13.123h6.554c-0.6,2.994-1.027,6.582-1.068,10.751h-8.52
			C2.101,19.962,3.192,16.296,5.047,13.123z M23.375,36.109h-4.282h-0.29c-0.218,0.162-0.465,0.285-0.729,0.354
			c-0.586,0.542-1.199,1.107-1.784,1.646h0.859h6.226v8.613c-2.181-0.098-4.279-0.511-6.256-1.189
			c-0.365-0.615-1.288-2.336-2.214-5.112c-0.086-0.258-0.172-0.532-0.258-0.806c-0.425,0.387-0.784,0.711-1.013,0.91
			c-0.214,0.188-0.439,0.349-0.67,0.488c0.12,0.358,0.24,0.707,0.359,1.033c0.318,0.869,0.631,1.628,0.919,2.266
			c-0.688-0.352-1.353-0.739-1.997-1.156c-0.796-0.516-1.545-1.096-2.267-1.704c-1.108-0.313-2.043-1.144-2.465-2.267
			c-0.03-0.08-0.045-0.16-0.07-0.24c-0.239-0.276-0.485-0.547-0.71-0.836h0.551c-0.045-0.689,0.111-1.373,0.443-2H5.335
			c-1.865-3.014-3.031-6.5-3.28-10.235h8.49c0.053,2.519,0.254,4.79,0.538,6.854c0.612-0.562,1.217-1.119,1.736-1.599
			c0.015-0.067,0.043-0.122,0.063-0.187c-0.174-1.569-0.296-3.254-0.336-5.07l-0.016-2c0.045-4.195,0.5-7.792,1.123-10.751h9.721h2
			h10.18c0.622,2.96,1.078,6.556,1.122,10.751l-0.015,2c-0.09,4.014-0.555,7.43-1.17,10.236H25.375H23.375L23.375,36.109z
			 M32.208,45.329c-2.142,0.804-4.438,1.288-6.833,1.394v-8.611h9.63C33.968,41.964,32.749,44.379,32.208,45.329z M35.103,44.001
			c0.631-1.437,1.357-3.387,1.994-5.892h4.918C40.142,40.514,37.791,42.525,35.103,44.001z M43.412,36.109h-5.854
			c0.59-2.84,1.02-6.262,1.104-10.235h8.029C46.443,29.609,45.277,33.098,43.412,36.109z"/>
		<path d="M21.376,19.986c-0.197,0.056-0.388,0.165-0.596,0.275c-0.216,0.103-0.401,0.274-0.604,0.442
			c-0.214,0.154-0.371,0.39-0.543,0.612c-0.19,0.214-0.286,0.491-0.405,0.757c-0.054,0.149-0.104,0.236-0.158,0.437
			c-0.027,0.119-0.046,0.239-0.068,0.357c-0.023,0.116-0.042,0.235-0.058,0.352c-0.012,0.129-0.018,0.271-0.02,0.402
			c-0.012,0.267-0.001,0.519,0.042,0.745c0.027,0.229,0.083,0.441,0.152,0.635c0.113,0.385,0.297,0.678,0.433,0.867
			c0.142,0.188,0.249,0.273,0.249,0.273s0.022-0.541,0.135-1.222c0.022-0.17,0.063-0.354,0.107-0.542
			c0.029-0.191,0.083-0.382,0.135-0.566c0.022-0.096,0.044-0.19,0.068-0.288c0.038-0.112,0.073-0.227,0.105-0.342
			c0.033-0.115,0.07-0.23,0.098-0.349l0.109-0.24c0.076-0.179,0.125-0.375,0.242-0.537c0.109-0.163,0.175-0.354,0.307-0.503
			c0.124-0.149,0.213-0.33,0.349-0.462c0.128-0.136,0.229-0.302,0.357-0.417c0.125-0.114,0.227-0.254,0.336-0.352
			c0.108-0.097,0.198-0.203,0.278-0.276c0.156-0.154,0.258-0.25,0.258-0.25s-0.13-0.02-0.367-0.011
			C22.087,19.801,21.753,19.844,21.376,19.986z"/>
	</g>
</g>
<g>
</g>
<g>
</g>
<g>
</g>
<g>
</g>
<g>
</g>
<g>
</g>
<g>
</g>
<g>
</g>
<g>
</g>
<g>
</g>
<g>
</g>
<g>
</g>
<g>
</g>
<g>
</g>
<g>
</g>
</svg>
